<mxfile host="app.diagrams.net" agent="Mozilla/5.0 (Windows NT 10.0; Win64; x64) AppleWebKit/537.36 (KHTML, like Gecko) Chrome/129.0.0.0 Safari/537.36 Edg/129.0.0.0" version="24.8.0">
  <diagram name="Page-1" id="GemhsLXP4rnLEjXBWpdL">
    <mxGraphModel dx="1426" dy="783" grid="0" gridSize="10" guides="1" tooltips="1" connect="1" arrows="1" fold="1" page="1" pageScale="1" pageWidth="850" pageHeight="1100" math="0" shadow="0">
      <root>
        <mxCell id="0" />
        <mxCell id="1" parent="0" />
        <mxCell id="MQRBNeoS-RAKOoE7oqia-1" value="&lt;u&gt;:User&lt;/u&gt;" style="shape=umlActor;verticalLabelPosition=bottom;verticalAlign=top;html=1;outlineConnect=0;" vertex="1" parent="1">
          <mxGeometry x="171" y="58" width="30" height="60" as="geometry" />
        </mxCell>
        <mxCell id="MQRBNeoS-RAKOoE7oqia-2" value=":&lt;u&gt;System&lt;/u&gt;" style="rounded=0;whiteSpace=wrap;html=1;" vertex="1" parent="1">
          <mxGeometry x="451" y="69" width="103" height="52" as="geometry" />
        </mxCell>
        <mxCell id="MQRBNeoS-RAKOoE7oqia-3" value="" style="endArrow=none;dashed=1;html=1;rounded=0;" edge="1" parent="1">
          <mxGeometry width="50" height="50" relative="1" as="geometry">
            <mxPoint x="184" y="550" as="sourcePoint" />
            <mxPoint x="186" y="140" as="targetPoint" />
          </mxGeometry>
        </mxCell>
        <mxCell id="MQRBNeoS-RAKOoE7oqia-4" value="" style="endArrow=none;dashed=1;html=1;rounded=0;entryX=0.5;entryY=1;entryDx=0;entryDy=0;" edge="1" parent="1">
          <mxGeometry width="50" height="50" relative="1" as="geometry">
            <mxPoint x="503" y="546" as="sourcePoint" />
            <mxPoint x="503" y="121" as="targetPoint" />
          </mxGeometry>
        </mxCell>
        <mxCell id="MQRBNeoS-RAKOoE7oqia-5" value="viewBooking(booking_id)" style="html=1;verticalAlign=bottom;endArrow=block;curved=0;rounded=0;" edge="1" parent="1">
          <mxGeometry width="80" relative="1" as="geometry">
            <mxPoint x="187" y="174" as="sourcePoint" />
            <mxPoint x="500" y="174" as="targetPoint" />
          </mxGeometry>
        </mxCell>
        <mxCell id="MQRBNeoS-RAKOoE7oqia-6" value="booking_details" style="html=1;verticalAlign=bottom;endArrow=open;dashed=1;endSize=8;curved=0;rounded=0;" edge="1" parent="1">
          <mxGeometry x="0.0032" relative="1" as="geometry">
            <mxPoint x="500" y="215" as="sourcePoint" />
            <mxPoint x="183" y="217" as="targetPoint" />
            <mxPoint as="offset" />
          </mxGeometry>
        </mxCell>
        <mxCell id="MQRBNeoS-RAKOoE7oqia-7" value="endViewing(booking_id)" style="html=1;verticalAlign=bottom;endArrow=block;curved=0;rounded=0;" edge="1" parent="1">
          <mxGeometry width="80" relative="1" as="geometry">
            <mxPoint x="186" y="258" as="sourcePoint" />
            <mxPoint x="503" y="256" as="targetPoint" />
          </mxGeometry>
        </mxCell>
      </root>
    </mxGraphModel>
  </diagram>
</mxfile>
